{
  "accessors": [
    {
      "bufferView": 2,
      "componentType": 5126,
      "count": 2737,
      "max": [
        6.28172492980957,
        6.301347732543945,
        6.283573627471924
      ],
      "min": [
        -6.281725883483887,
        -6.290814399719238,
        -6.283575534820557
      ],
      "type": "VEC3"
    },
    {
      "bufferView": 2,
      "byteOffset": 32844,
      "componentType": 5126,
      "count": 2737,
      "max": [
        0.9999876022338867,
        0.9981124401092529,
        0.9979462027549744
      ],
      "min": [
        -0.9977773427963257,
        -0.9993531107902527,
        -0.9999042749404907
      ],
      "type": "VEC3"
    },
    {
      "bufferView": 1,
      "componentType": 5126,
      "count": 2737,
      "max": [
        1.0,
        0.47238200902938843
      ],
      "min": [
        0.0,
        0.0
      ],
      "type": "VEC2"
    },
    {
      "bufferView": 0,
      "componentType": 5125,
      "count": 15360,
      "type": "SCALAR"
    },
    {
      "bufferView": 2,
      "byteOffset": 65688,
      "componentType": 5126,
      "count": 1134,
      "max": [
        6.622169017791748,
        6.785336494445801,
        -0.33090370893478394
      ],
      "min": [
        -6.724566459655762,
        -6.790567398071289,
        -35.75745391845703
      ],
      "type": "VEC3"
    },
    {
      "bufferView": 2,
      "byteOffset": 79296,
      "componentType": 5126,
      "count": 1134,
      "max": [
        0.9998791813850403,
        0.9932619333267212,
        -0.014013919979333878
      ],
      "min": [
        -0.9957898259162903,
        -0.9923058748245239,
        -0.9950236678123474
      ],
      "type": "VEC3"
    },
    {
      "bufferView": 1,
      "byteOffset": 21896,
      "componentType": 5126,
      "count": 1134,
      "max": [
        0.49000000953674316,
        0.49000000953674316
      ],
      "min": [
        0.01000000536441803,
        0.01000000536441803
      ],
      "type": "VEC2"
    },
    {
      "bufferView": 0,
      "byteOffset": 61440,
      "componentType": 5125,
      "count": 6618,
      "type": "SCALAR"
    },
    {
      "bufferView": 3,
      "componentType": 5126,
      "count": 250,
      "max": [
        10.416666984558105
      ],
      "min": [
        0.0416666679084301
      ],
      "type": "SCALAR"
    },
    {
      "bufferView": 4,
      "componentType": 5126,
      "count": 250,
      "max": [
        0.0,
        0.999980092048645,
        -0.0,
        1.0
      ],
      "min": [
        0.0,
        -0.999980092048645,
        -0.0,
        0.00630835210904479
      ],
      "type": "VEC4"
    },
    {
      "bufferView": 3,
      "byteOffset": 1000,
      "componentType": 5126,
      "count": 250,
      "max": [
        10.416666984558105
      ],
      "min": [
        0.0416666679084301
      ],
      "type": "SCALAR"
    },
    {
      "bufferView": 4,
      "byteOffset": 4000,
      "componentType": 5126,
      "count": 250,
      "max": [
        0.0,
        0.0,
        0.999980092048645,
        1.0
      ],
      "min": [
        0.0,
        0.0,
        -0.999980092048645,
        0.00630835210904479
      ],
      "type": "VEC4"
    }
  ],
  "animations": [
    {
      "channels": [
        {
          "sampler": 0,
          "target": {
            "node": 3,
            "path": "rotation"
          }
        },
        {
          "sampler": 1,
          "target": {
            "node": 5,
            "path": "rotation"
          }
        }
      ],
      "name": "Animation",
      "samplers": [
        {
          "input": 8,
          "interpolation": "LINEAR",
          "output": 9
        },
        {
          "input": 10,
          "interpolation": "LINEAR",
          "output": 11
        }
      ]
    }
  ],
  "asset": {
    "extras": {
      "author": "tamminen (https://sketchfab.com/tamminen)",
      "license": "CC-BY-4.0 (http://creativecommons.org/licenses/by/4.0/)",
      "source": "https://sketchfab.com/3d-models/radiation-of-space-a30114bfc2d5473eb8b2f775ce735ec6",
      "title": "Radiation of space"
    },
    "generator": "Sketchfab-16.12.0",
    "version": "2.0"
  },
  "bufferViews": [
    {
      "buffer": 0,
      "byteLength": 87912,
      "name": "floatBufferViews",
      "target": 34963
    },
    {
      "buffer": 0,
      "byteLength": 30968,
      "byteOffset": 87912,
      "byteStride": 8,
      "name": "floatBufferViews",
      "target": 34962
    },
    {
      "buffer": 0,
      "byteLength": 92904,
      "byteOffset": 118880,
      "byteStride": 12,
      "name": "floatBufferViews",
      "target": 34962
    },
    {
      "buffer": 0,
      "byteLength": 2000,
      "byteOffset": 211784,
      "name": "floatBufferViews"
    },
    {
      "buffer": 0,
      "byteLength": 8000,
      "byteOffset": 213784,
      "byteStride": 16,
      "name": "floatBufferViews"
    }
  ],
  "buffers": [
    {
      "byteLength": 221784,
      "uri": "scene.bin"
    }
  ],
  "extensionsUsed": [
    "KHR_materials_clearcoat",
    "KHR_materials_specular",
    "KHR_materials_transmission"
  ],
  "materials": [
    {
      "alphaMode": "BLEND",
      "doubleSided": true,
      "extensions": {
        "KHR_materials_clearcoat": {
          "clearcoatFactor": 1.0,
          "clearcoatRoughnessFactor": 0.04
        },
        "KHR_materials_specular": {
          "specularColorFactor": [
            1.0,
            1.0,
            1.0
          ],
          "specularFactor": 0.0
        }
      },
      "name": "Material.001",
      "pbrMetallicRoughness": {
        "baseColorFactor": [
          0.0,
          0.0,
          0.0,
          0.3164966896796971
        ],
        "metallicFactor": 0.0,
        "roughnessFactor": 0.0
      }
    },
    {
      "alphaMode": "BLEND",
      "doubleSided": true,
      "extensions": {
        "KHR_materials_transmission": {
          "transmissionFactor": 1.0
        }
      },
      "name": "Material.002",
      "pbrMetallicRoughness": {
        "baseColorFactor": [
          0.8,
          0.8,
          0.8,
          0.25
        ],
        "metallicFactor": 0.0,
        "roughnessFactor": 0.5
      }
    }
  ],
  "meshes": [
    {
      "name": "Object_0",
      "primitives": [
        {
          "attributes": {
            "NORMAL": 1,
            "POSITION": 0,
            "TEXCOORD_0": 2
          },
          "indices": 3,
          "material": 0,
          "mode": 4
        }
      ]
    },
    {
      "name": "Object_1",
      "primitives": [
        {
          "attributes": {
            "NORMAL": 5,
            "POSITION": 4,
            "TEXCOORD_0": 6
          },
          "indices": 7,
          "material": 1,
          "mode": 4
        }
      ]
    }
  ],
  "nodes": [
    {
      "children": [
        1
      ],
      "matrix": [
        1.0,
        0.0,
        0.0,
        0.0,
        0.0,
        2.220446049250313e-16,
        -1.0,
        0.0,
        0.0,
        1.0,
        2.220446049250313e-16,
        0.0,
        0.0,
        0.0,
        0.0,
        1.0
      ],
      "name": "Sketchfab_model"
    },
    {
      "children": [
        2
      ],
      "name": "root"
    },
    {
      "children": [
        3,
        5
      ],
      "matrix": [
        1.0,
        0.0,
        0.0,
        0.0,
        0.0,
        2.220446049250313e-16,
        1.0,
        0.0,
        0.0,
        -1.0,
        2.220446049250313e-16,
        0.0,
        0.0,
        0.0,
        0.0,
        1.0
      ],
      "name": "GLTF_SceneRootNode"
    },
    {
      "children": [
        4
      ],
      "name": "Icosphere_0"
    },
    {
      "mesh": 0,
      "name": "Object_4"
    },
    {
      "children": [
        6
      ],
      "name": "Cone_1"
    },
    {
      "mesh": 1,
      "name": "Object_6"
    }
  ],
  "scene": 0,
  "scenes": [
    {
      "name": "Sketchfab_Scene",
      "nodes": [
        0
      ]
    }
  ]
}
